<svg width="79" height="61" viewBox="0 0 79 61" fill="none" xmlns="http://www.w3.org/2000/svg">
<path d="M0.352979 59.8617L2.37 48.4151H4.57192L7.3117 56.2479H7.19404L9.93383 48.4151H12.1357L14.1696 59.8617H11.6987L10.9087 54.7519C10.8079 54.0684 10.7126 53.3904 10.623 52.7181C10.5445 52.0345 10.4773 51.351 10.4213 50.6674H11.1104C10.9311 51.407 10.7518 52.1018 10.5726 52.7517C10.4045 53.4016 10.2028 54.0572 9.96745 54.7183L8.21936 59.7272H6.28638L4.5383 54.7183C4.30298 54.046 4.09567 53.3904 3.91638 52.7517C3.7483 52.1018 3.57461 51.407 3.39532 50.6674H4.08447C4.02844 51.351 3.96121 52.0345 3.88277 52.7181C3.80433 53.3904 3.70908 54.0684 3.59702 54.7519L2.80702 59.8617H0.352979ZM17.1998 55.4579H22.5786V57.727H17.1998V55.4579ZM14.6954 59.8617L18.763 48.4151H21.4692L25.3352 59.8617H22.8475L19.7211 50.096H20.5279L17.1662 59.8617H14.6954ZM34.0501 59.8617L27.7805 51.3734L28.8395 51.0877V59.8617H26.3854V48.4151H28.621L34.7561 56.7521L33.8148 56.9202V48.4151H36.2688V59.8617H34.0501ZM40.8241 59.8617V49.5749H43.2949V59.8617H40.8241ZM37.4287 50.7851V48.4151H46.7575V50.7851H37.4287ZM52.6876 60.0634C51.5334 60.0634 50.5137 59.8113 49.6284 59.307C48.7544 58.8028 48.0765 58.1136 47.5946 57.2396C47.1128 56.3543 46.8718 55.3514 46.8718 54.2309C46.8718 53.3456 47.0119 52.5388 47.2921 51.8104C47.5834 51.0708 47.9868 50.4377 48.5023 49.9111C49.0177 49.3732 49.6284 48.9586 50.3344 48.6672C51.0516 48.3759 51.836 48.2302 52.6876 48.2302C53.9987 48.2302 55.08 48.5104 55.9316 49.0706C56.7945 49.6197 57.4612 50.4097 57.9318 51.4406L55.6963 52.3315C55.3265 51.7264 54.8951 51.2894 54.4021 51.0204C53.909 50.7403 53.3375 50.6002 52.6876 50.6002C52.0489 50.6002 51.4774 50.7515 50.9731 51.054C50.4801 51.3454 50.0879 51.76 49.7965 52.2979C49.5164 52.8357 49.3763 53.4801 49.3763 54.2309C49.3763 54.9256 49.5164 55.5419 49.7965 56.0798C50.0879 56.6065 50.4801 57.0211 50.9731 57.3236C51.4774 57.615 52.0489 57.7606 52.6876 57.7606C53.2815 57.7606 53.8082 57.6486 54.2676 57.4245C54.727 57.2004 55.0968 56.881 55.377 56.4664C55.6571 56.0406 55.814 55.5475 55.8476 54.9872L56.5535 55.8445H52.5027V53.6426H58.0831C58.1279 53.8218 58.1616 54.0123 58.184 54.214C58.2064 54.4157 58.2176 54.6174 58.2176 54.8191C58.2176 55.6035 58.0663 56.3207 57.7638 56.9706C57.4724 57.6094 57.069 58.164 56.5535 58.6347C56.0493 59.0941 55.4666 59.4471 54.8055 59.6936C54.1443 59.9401 53.4384 60.0634 52.6876 60.0634ZM66.5016 59.8617H59.5428V48.4151H61.9969V58.4162L61.375 57.4917H66.5016V59.8617ZM66.7991 54.1468C66.7991 53.284 66.9392 52.494 67.2193 51.7768C67.5107 51.0484 67.9197 50.4209 68.4464 49.8943C68.973 49.3564 69.5949 48.9418 70.3121 48.6504C71.0293 48.3591 71.8249 48.2134 72.6989 48.2134C73.5505 48.2134 74.3349 48.3591 75.0521 48.6504C75.7805 48.9418 76.408 49.3564 76.9347 49.8943C77.4613 50.4209 77.8647 51.0484 78.1449 51.7768C78.4362 52.494 78.5819 53.284 78.5819 54.1468C78.5819 55.0096 78.4362 55.8052 78.1449 56.5336C77.8647 57.2508 77.4613 57.8783 76.9347 58.4162C76.408 58.9428 75.7805 59.3518 75.0521 59.6432C74.3349 59.9233 73.5505 60.0634 72.6989 60.0634C71.8249 60.0634 71.0293 59.9233 70.3121 59.6432C69.5949 59.3518 68.973 58.9428 68.4464 58.4162C67.9197 57.8783 67.5107 57.2508 67.2193 56.5336C66.9392 55.8052 66.7991 55.0096 66.7991 54.1468ZM69.3036 54.1468C69.3036 54.8528 69.4493 55.4691 69.7406 55.9957C70.032 56.5224 70.4298 56.9314 70.934 57.2228C71.4495 57.5141 72.0378 57.6598 72.6989 57.6598C73.3488 57.6598 73.9259 57.5141 74.4302 57.2228C74.9457 56.9314 75.3491 56.5224 75.6404 55.9957C75.9318 55.4691 76.0774 54.8472 76.0774 54.13C76.0774 53.424 75.9318 52.8077 75.6404 52.2811C75.3491 51.7544 74.9457 51.351 74.4302 51.0709C73.9259 50.7795 73.3488 50.6338 72.6989 50.6338C72.0378 50.6338 71.4495 50.7795 70.934 51.0709C70.4298 51.3622 70.032 51.7712 69.7406 52.2979C69.4493 52.8133 69.3036 53.4296 69.3036 54.1468Z" fill="black"/>
<path fill-rule="evenodd" clip-rule="evenodd" d="M38.883 39.1727L36.3251 37.205L39.4733 34.8438L41.1809 37.205L38.883 39.1727Z" fill="#D9D9D9"/>
<path fill-rule="evenodd" clip-rule="evenodd" d="M14.2872 22.2508L26.8803 43.5015H51.2793L63.8723 22.2508L51.2793 1H26.8803L14.2872 22.2508ZM28.4544 39.9597H33.1768H49.7052L59.937 22.2508L49.7052 4.93533H28.4544L19.0096 22.2508L28.4544 39.9597Z" fill="black"/>
<path fill-rule="evenodd" clip-rule="evenodd" d="M33.1768 39.9597H28.4544L19.0096 22.2508L28.4544 4.93533H49.7052L59.937 22.2508L49.7052 39.9597H33.1768ZM33.1768 39.1727V20.2831C33.1768 20.2831 36.7186 26.5796 39.0798 26.1861C41.441 25.7926 44.5892 20.2831 44.5892 20.2831V39.1727H38.883H33.1768ZM29.2415 14.3801V32.4826L22.5514 22.2508L30.4221 7.69005H47.344L55.6082 22.2508L48.5246 32.4826V14.7736H44.9828L39.0798 21.0702L33.1768 14.3801H29.2415Z" fill="white"/>
<path d="M29.2415 32.4826V14.3801H33.1768L39.0798 21.0702L44.9828 14.7736H48.5246V32.4826L55.6082 22.2508L47.344 7.69005H30.4221L22.5514 22.2508L29.2415 32.4826Z" fill="black"/>
<path d="M33.1768 20.2831V39.1727H38.883L36.3251 37.205L39.4733 34.8438V33.2697H39.0798L36.3251 30.9085L39.0798 28.5473L41.441 30.9085L39.4733 33.2697V34.8438L41.1809 37.205L38.883 39.1727H44.5892V20.2831C44.5892 20.2831 41.441 25.7926 39.0798 26.1861C36.7186 26.5796 33.1768 20.2831 33.1768 20.2831Z" fill="black"/>
<path d="M39.4733 33.2697L41.441 30.9085L39.0798 28.5473L36.3251 30.9085L39.0798 33.2697H39.4733ZM39.4733 33.2697V34.8438M39.4733 34.8438L36.3251 37.205L38.883 39.1727M39.4733 34.8438L41.1809 37.205L38.883 39.1727M38.883 39.1727H44.5892V20.2831C44.5892 20.2831 41.441 25.7926 39.0798 26.1861C36.7186 26.5796 33.1768 20.2831 33.1768 20.2831V39.1727H38.883ZM14.2872 22.2508L26.8803 43.5015H51.2793L63.8723 22.2508L51.2793 1H26.8803L14.2872 22.2508ZM33.1768 39.9597H28.4544L19.0096 22.2508L28.4544 4.93533H49.7052L59.937 22.2508L49.7052 39.9597H33.1768ZM29.2415 32.4826V14.3801H33.1768L39.0798 21.0702L44.9828 14.7736H48.5246V32.4826L55.6082 22.2508L47.344 7.69005H30.4221L22.5514 22.2508L29.2415 32.4826Z" stroke="black" stroke-width="0.787065"/>
</svg>